<svg xml:space="preserve" viewBox="0 0 100 100" y="0" x="0" xmlns="http://www.w3.org/2000/svg" id="Layer_1" version="1.1" width="210" height="210" style="width:100%;height:100%;background-size:initial;background-repeat-y:initial;background-repeat-x:initial;background-position-y:initial;background-position-x:initial;background-origin:initial;background-color:initial;background-clip:initial;background-attachment:initial;animation-play-state:paused"><g class="ldl-scale" style="transform-origin:50% 50%;animation-play-state:paused" transform="scale(.83)"><linearGradient y2="85.807" x2="51.618" y1="37.807" x1="36.618" gradientUnits="userSpaceOnUse" id="SVGID_1_" style="animation-play-state:paused"><stop stop-color="#e32d38" offset="0" style="animation-play-state:paused"/><stop stop-color="#b0484f" offset="1" style="animation-play-state:paused"/></linearGradient><path stroke-miterlimit="10" stroke-width="3.5" stroke="#323232" fill="url(#SVGID_1_)" d="M44.859 16.397L9.485 77.667c-2.285 3.957.571 8.904 5.141 8.904h70.748c4.57 0 7.425-4.947 5.141-8.904l-35.374-61.27c-2.285-3.957-7.997-3.957-10.282 0z" style="animation-play-state:paused"/><path fill="#fff" d="M53.4 68.511l.6 3.906a4.048 4.048 0 01-8 1.23 4.183 4.183 0 010-1.229l.6-3.906a3.44 3.44 0 016.8-.001zm.6-28.094l-1.2 17.28a2.807 2.807 0 01-5.6 0L46 40.417a4.01 4.01 0 118 0z" style="animation-play-state:paused"/></g></svg>